<?xml version="1.0" encoding="UTF-8"?>
<svg xmlns="http://www.w3.org/2000/svg" xmlns:xlink="http://www.w3.org/1999/xlink" width="1175" height="1035" viewBox="0 0 11750 10350">
	<path d="M5920 3670a2460 2460 0 0 0-1465 4433c-1097-200-2038-571-2895-188-822 367-856 1899-90 2170 562 198 1441 85 2000 30 586-57 1222 80 1770 26 955-94 1820-10 2760-21 1131-13 2952 81 2990-795 50-1169-848-1603-1798-1597-470 2-1041 88-1580 186a2459 2459 0 0 0-1692-4244z"/>
	<g id="motto">
		<path d="M9260 8125c256-4 466 79 565 232-286 711-1771 1194-2670 939l15-59c1125 20 1380-1102 2090-1112zm-2280 702c174 32 403 12 552-19-72 66-193 183-351 248 0-84-74-213-201-229zm2938-1455c-214-139-1247-300-1885 493-353 420-852 840-1457 895-236-24-457-25-621-25-163 0-426-2-658 17-854-192-1479-1409-2567-1409-781 0-1315 1075-1261 1884 805 973 2647 1466 3921 774 27-64 5-231 8-294h1111l-6 336c1352 607 3708 101 4115-1322-119-236-361-1128-700-1349zM2166 8543c838-908 1597 977 2550 722-946 320-2041-80-2550-722zm2263 295c117 41 238 67 362 70-29 43-43 123-60 203z"/>
		<path fill="#fff" d="M4875 9004c-15 64-20 149-5 221 23 42 59 50 95 60 137 2 135-35-1-130 101 19 287-28 287 79 0 80-685 281-1296 281-1083 0-2041-903-2041-1197 0-238 122-359 226-478-153 200-149 400-35 600a686 686 0 0 1 570-275c814 0 1120 980 1930 980-279-226-564-471-765-775 375 269 756 486 1170 400-763-242-1169-1247-2275-1247-832 0-1120 1197-1090 1657 448 552 1419 1040 2175 1040 1114 0 1424-222 1490-355 7-210 23-418-10-630-34-222-363-42-369-175-3-83 139-97 212-105 0 0-152 52-150 101 1 46 380-48 402 159v375h1113l7-375c28-265 336-138 338-184 1-49-173-86-173-86 73 8 316 25 316 108 0 128-400-65-411 160-10 211 15 510 23 720 121 72 523 240 1262 240 1086 0 2170-546 2593-1458-257-454-336-1234-978-1272-1458-88-1327 905-2395 1287 309-19 525 4 900-265-216 274-361 454-640 635 1085-225 1096-1095 1910-1095 283 0 495 94 620 245 149-175 103-342 60-485 64 21 146 107 146 233 0 319-623 1482-2366 1482-326 0-1084-188-1084-269 0-106 174-37 275-56-76 63-48 64 14 90 73 30 107 28 123-17 23-71 11-134-3-199-37-167-763-174-1090-174s-1043-6-1080 149z"/>
		<path d="M1935 8598l325 322c258 256-159 667-387 405l-225-257c77 66 152-72 197-143 60-94 148-169 90-327zm-67 567c247 335 476-182 207-330z"/>
		<path d="M2433 9055l267 165c-144 7-166 123-220 208-53 82-109 171-52 280l-293-185c131 14 184-69 233-150 55-93 125-189 65-318zm300 185l362 175-65 135c6-65-40-123-150-155l-67 130c48 32 118 100 180 38l-88 197c9-77-83-117-135-142l-77 152c77 42 145 104 227 28l-67 142-383-200c97-6 151-123 195-207 47-89 107-171 68-293zm385 180l270 90c-57 4-97 24-113 90-31 125-114 380 53 380 138 0 141-224 157-335 8-55-7-89-55-125l320 55c-165 39-133 174-157 283-22 97-40 216 80 280l-278-25 18-88c-316 138-435-96-280-472 23-57 30-85-15-133zm822 170l451-12 5 137c-26-47-65-70-177-58l10 149c58 5 132 31 156-53l10 214c-30-71-103-64-161-62l8 171c88 0 136 24 171-83l3 158-464 16c122-42 106-188 104-283-1-100 12-221-116-294zm515-20l20 185c25-57 74-118 158-122l75 320c27 101-39 134-80 170l380-105c-79-13-122 2-150-110l-83-315c133-42 157-6 218 32l-43-172zm2170-262l225 77 105 303 175-238 198 28c-133 74-100 193-104 300-5 108-2 222 89 292l-320-52c149-78 94-241 117-378l-217 310-113-320c-32 127-76 250 29 335l-204-95-2-46c49 3 68-118 80-174 23-116 66-238-58-342z"/>
		<path d="M7558 9509a279 291 0 0 0-280 291 279 291 0 0 0 280 291 279 291 0 0 0 279-291 279 291 0 0 0-279-291zm4 74a112 224 0 0 1 112 223 112 224 0 0 1-112 224 112 224 0 0 1-111-224 112 224 0 0 1 111-223z"/>
		<path d="M7785 9535h213l237 285c-12-177 0-233-135-290l290-25c-99 95-65 168-47 588l-333-323c2 151-22 268 118 315l-348 18c137-43 118-175 120-273 2-106 35-218-115-295zm660-40l268-92c444-154 604 406 220 530l-343 110c159-114 99-226 55-325-40-91-40-210-200-223zm415 368c230-53 144-473-140-368z"/>
		<path d="M9268 9435c137-44 62-221-83-157zm-310-127l250-133c182-97 315 72 217 235 87 34 208 118 313 58-151 258-285 78-420 50 40 70 49 184 192 145l-305 162c114-91-13-202-35-305-68-74-74-204-212-212z"/>
		<path d="M9561 8927a302 302 0 0 0-16 403c98 120 264 135 371 33a302 302 0 0 0 17-403c-98-120-265-135-372-33zm31 54c43-41 156-1 232 92 75 92 102 201 59 242-43 40-152 1-227-92-76-93-107-201-64-242z"/>
		<path d="M9733 8798l180-228c-29 112 76 178 142 238 74 66 148 186 245 107l-197 260c56-123-60-184-133-260-62-64-143-152-237-117zm315-140l-133-105 210-353 123 88c-111 17-99 54-130 100 161 125 240 262 292 235l30 67-127 198c41-146-148-273-263-385-30 45-26 109-2 155z"/>
	</g>
	<g id="lion_arm">
		<path d="M3045 4830l1490-1210v660L3045 5680z"/>
		<path fill="#fff" d="M3045 4990l1490-1210v335L3045 5515z"/>
	</g>
	<g id="unicorn_arm">
		<path d="M8520 3960c-449 377-842-225-1590-225v495c762 35 978 800 1590 525"/>
		<path fill="#fff" d="M8510 4565c-459 357-832-455-1580-455v-255c627 29 1198 655 1580 295z"/>
	</g>
	<g id="arms_crown_and_garter">
		<g>
			<path fill="#fff" d="M7877 8115H6382v1985l-435 180-425-190V7820c0-500 1755-640 2355 295z"/>
			<path d="M5947 10185c23 0 47 0 72-2 157-8 346-64 346-413 0-48-55-46-55 0 0 291-98 318-363 318s-362-27-362-318c0-46-55-48-55 0 0 404 252 415 417 415zm-305-2310v1830c0 250 240 183 240 78 0-138-163-56-82 20-170 48-185-401 65-258-90-132-1-210 85-290 85 80 175 158 85 290 250-143 235 306 65 258 81-76-83-158-83-20 0 105 240 172 240-78v-920h165v1170c0 270-276 345-472 345s-473-75-473-345V7875c0-753 2033-564 2398 221h-220c-330-580-2013-718-2013-221z"/>
		</g>
		<g>
			<path fill="#fff" stroke="#000" stroke-width="160" d="M4167 6140a1743 1743 0 1 1 3486-3c0 1393-1338 1670-1321 1924 399 54 793 90 1179 91 575-472 972-1213 972-2015a2573 2573 0 1 0-5146 3"/>
			<path d="M4042 5684a291 291 0 0 1-405-74 291 291 0 0 1 74-404 291 291 0 0 1 404 74 291 291 0 0 1-73 404zm-18-109a221 159 10 0 0 65-89 221 159 10 0 0-189-195 221 159 10 0 0-246 116 221 159 10 0 0 189 196 221 159 10 0 0 181-28zm382-607l-179 331c31-118-88-167-180-219-95-54-222-144-307-78l188-302c-21 140 97 185 206 241 93 49 178 119 272 27zm-445-328l164 125c-9-62-14-177 54-225l233 233c77 72 38 134 21 186l268-289c-73 31-103 66-185-14l-236-225c91-105 155-87 227-87l-142-136zm928-171a291 338 62 0 1-213-352 291 338 62 0 1 413-241 291 338 62 0 1 213 352 291 338 62 0 1-413 241zm86-92a221 185 57 0 0 123-17 221 185 57 0 0 45-283 221 185 57 0 0-274-96 221 185 57 0 0-44 283 221 185 57 0 0 150 113z"/>
			<path d="M4975 4348c175-198 448 89 665-60-70 212-500 27-665 60z"/>
			<path d="M5199 3777l331-45c-96 79-26 211-10 278 26 111 68 183 142 176 73-7 84-124 71-209-8-55 4-220-112-260l314-20c-86 65-67 181-57 292 8 100-23 221 93 280l-204 10 5-66c-279 180-356 98-405-175-11-61-13-244-168-261zm1106-61l-340-17c107 33 93 178 89 283-4 109 23 237-72 284l292 17c-105-56-86-178-78-300 8-105-7-253 109-267zm197 28l301 110 20 395 375-225 213 147c-181-23-221 117-288 206-55 74-167 186-98 278l-287-176c182 16 278-158 359-280l-370 198-47-378c-65 113-125 305-47 415l-338-141c156 16 209-145 235-196 54-105 126-229-28-353z"/>
			<path d="M7448 4618l100-203-192 112zm-170-47c-95 43-175 79-108 209l-257-195c145 53 652-270 652-270l118 113s-288 532-255 630l-205-235c103 55 137-22 185-116z"/>
			<path d="M7795 4560c46 124-33 217-130 295-103 83-217 173-325 108l333 505 235-153c-218 36-274-97-350-207 187-147 320-329 460-238zm515 1015l48 290c-93-135-224-127-328-185-102 13-256 0-285 130l-87-317c92 101 194 59 295 35 83-94 218-159 242-330l105 332c-97-117-119-9-172 40 65 48 125 107 182 5zm43 318l10 281c11 278-320 320-318 1-119 0-226-42-287 93l-8-348c76 133 181 101 288 98 114-5 270 14 315-125zm-233 282c16 152 182 120 168-2z"/>
			<path d="M8351 6412l-80 403-122-31c53-14 70-40 84-147l-164-35c-18 53-26 140 31 169l-213-38c77-12 82-91 94-146l-161-33c-20 82-47 132 27 170l-159-33 82-399c12 123 183 142 277 161 99 21 202 63 304-41z"/>
			<path d="M7930 7516l167-271c-112 103-187-9-302-67l350-50 110-256c-60 121-213 52-331-12-88-47-194-57-211-223l-114 299c104-127 325 31 424 81l-556 111c180 106 449 188 463 388zm-280-194c-194-38-270 67-195 126 53 42 227-74 336 13 179 142-92 349-104 339l-135-104c198 38 219-78 171-116-66-53-231 85-345-12-137-117 35-360 117-361z"/>
			<path d="M7674 7851l-317 308-136-120c51 20 123 11 196-68l-96-112c-45 33-112 97-82 154l-151-166c69 36 119-26 160-64l-101-107c-64 55-140 129-102 203l-112-144 323-287c-61 107 81 205 146 275 69 74 128 153 272 128z"/>
		</g>
		<g id="arms">
			<path fill="#fff" stroke="#000" stroke-width="80" d="M7420 4410v2140c0 677-61 1031-1510 1360-1449-329-1510-683-1510-1360V4410z"/>
			<path fill="none" stroke="#000" stroke-width="60" d="M7420 6060H4400m1510 1850V4410"/>
			<path d="M5502 6303l-28 12 140 305 15-44zm-68 24l-30 11 182 395 15-43zm-70 25l-28 10 222 485 15-44zm-71 18l-31 6 268 584 15-44zm-155 10l-36-1 372 808 15-44zm-82-1l-36-7 426 928 15-44zm160-3l-31 2 317 695 15-43zm492 1294l-305-52 27-145c-61-32-180-93-157 62-99-18-144-102-63-170-118-98-231-93-187 43-122-14-161-170-13-230-44-140-176-81-175 5-77-52-92-185 80-190-48-77-76-215-217-98-65-7-58-219 140-162 16-109-70-260-178-120-81-50 22-248 198-118 17-113 25-221-93-277-36-18-71 21 25 80-11 52-40 68-77 67-103-115-30-225 115-192 79 16 234 93 322 85 185 3 513-205 645 57 1 452-42 903-87 1355zm-253-287l225-913c29-118-88-242-207-195a814 814 0 0 1-483 58c-3 647 189 927 465 1050z"/>
			<path fill="none" stroke="#000" stroke-width="40" d="M7310 5146l43 92-43 91m-1292-183l-43 92 43 91m737 604l-91 42-91-42m182-1390l-91-43-91 43m582 1390c51 23 69 47 135 20l59 18-18-53c35-66 7-93-21-143m-1138 158c-50 23-69 47-135 20l-58 18 18-53c-36-66-7-93 21-143m1137-1232c51-24 69-48 135-21l59-18-18 53c35 66 7 93-21 143m-1138-157c-50-24-69-48-135-21l-58-18 18 53c-36 66-7 93 21 143m1292-157H6018v1390h1292zm-80 80H6098v1230h1132z"/>
			<path stroke="#000" stroke-width="40" d="M7230 5783c-56-15-88-2-70 70h70zm-1132 0c55-15 87-2 70 70h-70zm1132-1090c-56 14-88 1-70-70h70zm-1132 0c55 14 87 1 70-70h-70zm1132 686c-30 0-31-31-31-61s-41-80-41-80 41-51 41-81 1-61 31-61m-1132 283c30 0 31-31 31-61s41-80 41-80-41-51-41-81-1-61-31-61m707 757c0-31-30-32-61-32-30 0-80-41-80-41s-51 41-81 41-60 1-60 32m282-1230c0 30-30 31-61 31-30 0-80 41-80 41s-51-41-81-41-60-1-60-31"/>
			<path d="M6254 5036c-5-22 35-55 80 38 41 26 69 78 129 24-46-69-89-138-112-213-28-38-105-79-45-111-12-15 1-46 36-35 9-36 49-18 51 0 32-21 54 23 37 83-24 72 38 114 80 163 64-48 129-89 213-75 15-14 29-29 22-50-18-11-35-13-31-45-46-6-150 46-146-64 43 83 95 24 157 31-5-20-23-82 58-72 44-38 104-34 148-5 71-13 77 0 42 41 13 20 33 55 10 66 15 25 15 72-9 64 6 38-11 70-29 54 0 27-17 81-34 57-13 15-16 67-42 44l-36 34c2 81 25 159 75 230 142 34 95-48 95-103 0-71 107-164 107-223 0-46-67 37-52 81-24 24-38 9-55 5-22 34-50 38-78 35 18-100 82-213 145-213 68 0 100 35 100 80 0 110-99 145-99 247 0 39 57 157-91 188 8 50 56 120 88 120 72 0 13 174-47 224-33 39-98 85-116 40-19 17-55 0-37-34-31 0-38-44 3-51 2-47 43-49 112-24 35-170-30-47-183-215-43 34-86 28-140 28 0 47 65 61 65 90 0 70-151 83-240 107-28 30-72 70-85 18-32 11-61-22-39-46-26-18-24-50 14-57 4-46 48-35 105-2 38 0 75-4 100-40-33-50-80-79-80-168 0-105 151-75 263-82-61-38-129-84-139-145l-119 87c-65-14-132-25-185-65-56-11-119-8-101-52-20-7-29-45 3-52-14-20 2-41 32-37z"/>
			<path id="a" stroke-width="40" d="M5520 4458c-43 108-168 121-275 92-200 23-88 70-5 70 145 0 302-105 420-105 86 0 143 33 143 80 0 78-178 123-178 123s63 45 125 20c58-24 90 20 80 57-15 56-14 98-2 148-32 43-45 22-63 0-18 31-57 28-62-9-32 14-79-30 17-76l-22-40-283-28c203 62 99 136 0 158h-160c-56 53-94 12-82-8-36-2-58-36-8-67-20-36 35-53 90 15 94 13 225 7 58-30-70-16-75-53-35-85-97 2-141 75-260 47-64 150-256 93-390 100-39 36-95 47-95 0-39-7-36-64 2-65-4-29 26-63 88-12 47 8 94 15 155-3-75-65-143-135-193-185-81-21-84-66-55-80-26-25 4-70 40-50 18-33 71-7 80 70 31 49 90 118 165 145 42-34-48-81-11-150-13-48-28-110 41-62 30-12 61-21 110-5 39-17 65-13 33 85 9 88 68 87 130 85 173-18 294-45 462-25 250-35 192-133 30-95-65 14-301 147-482 82-79-28-62-97 2-147 55-45 280-10 390-50z"/>
			<use transform="translate(0,520)" xlink:href="#a"/>
			<use transform="translate(0,1040)" xlink:href="#a"/>
			<use transform="translate(1500,1635)" xlink:href="#a"/>
			<use transform="matrix(0.959,0,0,1,1687,2150)" xlink:href="#a"/>
			<path d="M6864 7123c-37 108-148 121-243 92-113 26-40 70 34 70 128 0 211-105 315-105 76 0 161 40 161 88 0 77-129 115-129 115 46 30 31 57 0 75-45 25-100 43-131 85-21 17-61 27-68-5-22 16-51-27-30-45-23-20 17-55 75-20 28-12 68-19 60-45-5-21-90-6-129 7-115 39-14 115-58 138l-116 60c-49 53-83 12-73-8-31-2-50-36-6-67-18-36 31-53 79 15 104-77-12-50 58-123-68 42-157 58-205 35-56 150-210 163-324 196-32 43-82 56-82 9-34-7-32-68 2-69-5-34 21-70 75-23 40 2 127-38 175-76-147-16-183-152-227-202-72-21-75-66-49-80-23-25 3-70 35-50 16-33 63-7 71 70 27 49 80 118 146 145 36-46-62-87-20-150-3-51-15-110 46-62 26-12 54-21 97-5 34-17 57-13 29 85 8 88 60 87 114 85 154-18 268-45 416-25 221-35 107-133-36-95-58 14-211 147-371 82-69-28-54-97 2-147 49-45 210-10 307-50z"/>
		</g>
		<g id="crown">
			<path d="M5495 1217v620c-114-89-195-55-270 0-239-131-456-99-655 75-377-75-372 308-557 464l237 901-110 175 203 123c-202 63-116 364 67 312 1048-295 1937-288 3000 0 183 50 269-249 68-312l202-123-110-175 237-901c-185-156-180-539-557-464-199-174-416-206-655-75-75-55-156-89-270 0v-620z"/>
			<path fill="#fff" stroke="#000" stroke-width="80" d="M5778 711l38-216s-273-13-273 228V120c0 240 283 232 283 232s23-287-217-287h602c-240 0-217 287-217 287s283 8 283-232v603c0-241-273-228-273-228l38 216"/>
			<path d="M5910 221l-221 200 221 200 221-200zm0 140a60 60 0 1 1 0 120 60 60 0 0 1 0-120z"/>
			<g id="crown_half">
				<path stroke-width="300" d="M4566 972c-685 34-744 783-543 1208 93 197 354 16 274-122-164-283-143-765 269-786 324-17 605 311 935 317 218 4 109-272-45-314-306-84-596-318-890-303z"/>
				<g fill="#fff" stroke="#000" stroke-width="120">
					<circle cx="4013" cy="2247" r="140"/>
					<circle cx="3883" cy="1972" r="140"/>
					<circle cx="3818" cy="1615" r="140"/>
					<circle cx="3898" cy="1275" r="140"/>
					<circle cx="4163" cy="1027" r="140"/>
					<circle cx="4461" cy="915" r="140"/>
					<circle cx="4811" cy="897" r="140"/>
					<circle cx="5116" cy="995" r="140"/>
					<circle cx="5396" cy="1127" r="140"/>
				</g>
				<path fill="#fff" stroke-width="60" d="M4566 1092c-659 22-626 685-433 1039 20 39 69 4 54-24-209-401-119-950 379-955 311-3 577 268 871 302 43 5 37-51 6-60-305-82-581-313-877-302zm1047 342v528c0 43 60 31 60 0v-528c0-44-60-32-60 0z"/>
				<path fill="#fff" stroke-width="140" d="M5929 3445c-488 0-1002 65-1505 197-91 24-58 159 36 135 490-122 993-192 1469-192zm-835-282c-129 17-226 84-217 150 9 65 120 105 249 87 128-17 225-84 217-150-9-65-121-105-249-87zm834 226c-470-1-992 43-1458 163l130-185-230-128-245-857 192-165c-139 159-71 329-31 488 151-55 170-203 156-363l193 590c-73-126-177-151-317-117 112 502 591 516 700 141l99-19c364 427 736 104 736-334-142 0-288 4-361 206v-535c81 173 188 210 361 210 0-120-18-303-258-377h333l-8 871-236 195 236 195zm-878-640l-33 5c-57-359-326-372-119-802 338 338 88 439 152 797zm32-5l31-4c-75-238 269-316 220-73 244-271-296-526-251 77zm60 50c59-8 63 55 8 62l-192 33c-55 11-72-50-13-61zm-157-33l-31 6c-7-250-357-210-231 3-320-176 107-594 262-9z"/>
			</g>
			<use transform="matrix(-1,0,0,1,11820,0)" xlink:href="#crown_half"/>
			<circle cx="5910" cy="1061" r="365" fill="#fff" stroke="#000" stroke-width="120"/>
			<path fill="none" stroke="#000" stroke-width="80" d="M6257 1173s-172-53-347-53-347 53-347 53m429-462v252c108 0 279 46 279 46m-443-298v252c-108 0-279 46-279 46"/>
			<g fill="#fff" stroke="#000" stroke-width="60">
				<circle cx="5910" cy="1247" r="127"/>
				<circle cx="5910" cy="1393" r="127"/>
				<circle cx="5910" cy="1540" r="127"/>
				<circle cx="5910" cy="1697" r="127"/>
				<circle cx="5910" cy="1950" r="127"/>
			</g>
			<path d="M6846 3600s393-18 375 72c-22 106-375-72-375-72zm-769-86s388-67 381 24c-8 108-381-24-381-24zm-766 30s372-128 379-37c10 108-379 37-379 37zm-710 127s353-175 372-85c23 105-372 85-372 85z"/>
		</g>
		<g>
			<path fill="#fff" stroke="#000" stroke-linejoin="round" stroke-width="160" d="M3337 6135c0 1421 1207 2830 3458 2660 265-114 876-463 1008-665-2791 185-3636-1052-3636-1995"/>
			<path fill="#fff" stroke="#000" stroke-width="50" d="M6467 8393a83 83 0 0 1-105-54 83 83 0 0 1 54-104 83 83 0 0 1 104 53 83 83 0 0 1-53 105zm27 39a83 83 0 0 1 18-116 83 83 0 0 1 116 18 83 83 0 0 1-18 116 83 83 0 0 1-116-18zm-30 38a83 83 0 0 1 116-19 83 83 0 0 1 19 116 83 83 0 0 1-116 19 83 83 0 0 1-19-116zm-45-17a83 83 0 0 1 54 105 83 83 0 0 1-105 53 83 83 0 0 1-53-104 83 83 0 0 1 104-54zm2-47a83 83 0 0 1-83 83 83 83 0 0 1-83-83 83 83 0 0 1 83-83 83 83 0 0 1 83 83z"/>
			<circle cx="6454" cy="8429" r="107"/>
			<path fill="#fff" stroke="#000" stroke-width="50" d="M5420 8256a83 83 0 0 1 83 83 83 83 0 0 1-83 83 83 83 0 0 1-83-83 83 83 0 0 1 83-83zm47 2a83 83 0 0 1 105-53 83 83 0 0 1 53 104 83 83 0 0 1-104 54 83 83 0 0 1-54-105zm17-45a83 83 0 0 1-19-116 83 83 0 0 1 116-18 83 83 0 0 1 19 116 83 83 0 0 1-116 18z"/>
			<path d="M5693 7920c-73-17-235 318-235 318s-180 367-18 517c-487-27-352-317-230-617 183-393 295-348 483-218z"/>
			<path fill="#fff" d="M5550 7890c-72-17-215 303-215 303s-282 470 78 557c-458-20-143-577-143-577s148-385 280-283z"/>
			<path fill="#fff" stroke="#000" stroke-width="70" d="M5175 8111c9-14 206 16 250 30 43 14 85 68 71 112s-77 56-120 42a759 759 0 0 1-201-184z"/>
			<path d="M5045 8398l-237-118c103 18 115-99 157-172l-190-113c-46 87-143 163-52 250l-265-170c102 38 170-87 230-182 55-90 135-188 75-273l247 150c-131-18-147 87-197 155l190 113c38-89 112-154 47-255l238 122c-125-24-151 127-203 213-53 86-92 196-40 280z"/>
			<path d="M4391 7349a291 291 0 0 0-291 291 291 291 0 0 0 291 291 291 291 0 0 0 291-291 291 291 0 0 0-291-291zm48 100a159 221 45 0 1 104 36 159 221 45 0 1-45 268 159 221 45 0 1-268 45 159 221 45 0 1 44-269 159 221 45 0 1 165-80z"/>
			<path d="M3598 6905l130 293c-7-152 148-174 267-225l-165 442 130 178c-54-125 57-214 163-278 84-52 157-151 295-57l-160-258c30 161-124 185-215 255l147-457c-197 69-431 225-592 107zm-110-397l87 357c3-122 147-136 250-160 106-24 234-98 308 10l-85-340c-17 153-140 164-260 188-104 20-232 75-300-55zm335-185c180-90 170-215 75-215-69 0-138 190-278 190-229 0-148-320-132-320h160c-183 92-90 182-28 182 85 0 110-177 260-177 169 0 190 270 110 332z"/>
		</g>
	</g>
	<g id="unicorn">
		<path d="M9160 6130c-747 353-769 1022-370 1570 352 483-727 1108-1155 1575l225 25-125 140c677 23 1263-193 1360-685 102-520 330-533 375-935-264-288-196-421 280-370z"/>
		<path fill="#fff" d="M8330 8955l-317 353 412-78c85-62 131-135 170-210-88-11-177-16-265-65zm-60-30l-230 250-147 8zm1025-2660c-1004 346-551 1107-400 1320 262 367-74 917-535 1235 20 163 129 118 210 140-2-88 17-175 120-230 37 134-3 253-30 375 84-47 118-181 150-320 37 79 8 174-5 265 80-152 167-300 170-490 125-340 370-540 370-660 0-92-255-412-135-585 33-47 203 45 445-35z"/>
		<path d="M8910 7290c-194-209-97-734 248-805-244 196-312 482-248 805zm218 813c157-358-134-553-43-818 60-174 98-157 468-175l35 105c-212 57-468-67-468 163 0 331 239 457 170 540-51 61-162 185-162 185z"/>
		<path d="M8900 1795S7991 110 8043 83c43-23 1237 1482 1237 1482l215 65c94-161 149-181 205 53l60 25c125-3 196-60 275-148 46-35 75-5 95 60-20 65-23 140-17 203 135 29 269 65 385 180l-140 27c167 5 326 82 480 208l-268-8 350 123-155 47c154 52 402 103 325 290-81-112-171-131-265-90a525 525 0 0 1 335 258c-107-55-215-83-322-25 119 79 306 51 337 287-81-64-159-142-252-102 127 111 339 160 177 485-25-131-48-263-210-250 86 96 244 292 65 510 20-160 17-305-192-313 184 76 203 214 87 403l-47-103c6 69 14 138-18 200l-52-77c-2 66-14 132-68 192l-35-95a485 485 0 0 1-307 225c53-51 120-112 72-170l-167-200c-184 744-129 1483 247 2200 405 159 368 935 700 935 145 0 255-91 255-265 0-391-618-558-675-1270-148-155-315-328-315-530 0-175 108-333-87-507 74-27 161-22 222 57 40-162-8-196-137-152 62-157 205-201 347-185 43-117 136-230 300-158 126-60 266-65 358 153-198-71-247 16-183 190 95-87 201-105 310-18-102-10-180 38-205 130 40 97 102 184 98 293-16 427-608 545-383 982 13-272 298-312 245-630 342 253-39 426 0 675 54-105 142-194 143-335 245 187-44 351-3 560l100-295c193 178-82 343 15 500l75-280c158 213-17 548-17 548 342 681-503 1178-863 702 2 260-123 556 175 730 368-22 115 383 115 760 0 259 200 704-90 955l-35-100c-244 420-756 502-1049 443l75-123-221-40c390-435 857-766 855-1215-2-523-818-806-1065-1290-166-326 57-447-415-975a3528 3528 0 0 1-650-1021c-338 9-774-60-683 464 113 233 218 479 118 655l-63-85c51 135 68 603-390 812a625 625 0 0 1-47-525 639 639 0 0 1-25-410c7-951-48-1187 329-1277 257-61 305-134 628-233-17-380 109-770 488-1120-181 44-263 47-365 230-29-143-100-236 170-420-112 73-242 178-342 158-109-22-153-107-102-234-122-121-33-261 45-359 47-175 123-235 235-274 82-86 192-185 224-291-167-6-325-27-397 207-35-154-29-333 252-367-102-20-197-18-252 100-7-89 4-194 127-270-81 12-152 89-220 180 7-210 98-342 294-327 81-86 205-113 406-68z"/>
		<path fill="#fff" d="M8193 311s195 388 237 359c46-33-237-359-237-359zm287 394c-26-6-46 59-17 70 30 11 47-63 17-70zm58 88c-26-6-46 60-17 70 30 11 47-62 17-70zm59 89c-27-7-49 72-20 82 30 11 50-75 20-82zm58 88c-26-6-54 79-25 90 30 11 55-83 25-90zm63 70c-25-13-58 104-30 118 34 17 68-98 30-118zm70 98c-36-14-69 145-33 162 44 21 77-146 33-162zm95 92c-36-13-74 203-38 220 44 21 82-203 38-220zm105 138c-36-14-97 250-60 267 43 21 104-251 60-267zm102 140c-36-14-101 277-65 295 44 20 109-279 65-295zm60 287l75-30s25-124-17-127c-48-4-58 157-58 157zm415-145c27-38 53-82 80 23zm816 1750c28-29 59 76 140 153 76 71 187 133 179 225-46-82-153-110-198-168-69-89-149-181-121-210zm-60 140c30-27 72 66 148 147 71 77 178 145 164 237-40-85-139-125-186-180-93-109-156-178-126-204zm-53 141c36-35 262 223 245 305-82-125-291-263-245-305zm115-461c48-62 170 136 243 230 70 90 233 112 189 231-12-89-176-95-218-177-93-182-241-249-214-284zm30-497c10-61 209 40 246 68 69 52 112 138 210 170-95 81-216-120-283-155-113-59-180-40-173-83zm-55-190c10-61 230 33 271 56 94 52 127 107 192 135-107 21-183-95-255-118-165-54-215-30-208-73zm77 369c26-79 365 279 491 240-79 84-193-33-315-114-95-63-192-76-176-126zm-19 155c8-49 142 16 233 143 61 85 138 170 264 231a406 406 0 0 1-296-172c-95-151-208-158-201-202zm-133-639c-20-46 123-60 271-24 105 24 180 110 307 130-172 11-246-72-317-83-172-27-243 17-261-23zm-100-153c-34-77 365-47 498 74-346-133-473-17-498-74zm-82-101c-27-80 307-92 397-31-249-43-381 76-397 31zm-101-76c-50-69 176-147 280-115-177 18-252 153-280 115zm-240 70c200-110 281-220 260-443-65 191-139 323-260 443zM8603 3165c-146 110-163 283-278 249-72-22-38-111 11-102 26 5 17 82 89-13 38-50 99-94 177-134zm-128-1217c89-13 134 66 287 66 266 0 412-265 836-184l-13 95c-78 5-144 78-175 153-17-64 33-169 143-203-151 5-280 113-395 208 36-71 81-140 170-203-273 63-578 355-853 68zm893-260l45 62c75-13 143 20 212 45-62-98-164-91-257-107zm-423 172c-57 53-155 72-225-9 60 33 195-33 225 9zm1980 3535c13 597 700 832 700 1335 0 265-222 465-465 465-425 0-455-665-680-720 405 800-165 1135 340 1470 444 28-100 577 225 1030l-155-140c92 157 167 317 115 500l-150-295-10 365-80-350c-69 90-119 182-95 285-93 17-197 39-290-35 205-185 372-399 372-785 0-326-53-367-362-630-473-403-1277-903-510-1645 392-379-157-810-110-1555-290 690 426 1151 15 1560-162 161-284 185-467-30-220-258-535-635-608-980 222-31 446-59 656-129 120-160 390-412 319-761-229 947-959 645-1867 805-39 83-93 147-158 198 28 186-45 409 125 560l-150-88c84 122 217 212 235 375-77-100-152-206-255-235 106 177 185 250 150 438-49-167-136-240-200-373-71 201 260 301-75 445-31-97-18-195 4-292l11-893c14-180 116-267 270-300l1265-420a606 606 0 0 0-360-30c5-364 314-401 690-435-360-53-798-80-832 478l-90 30c-13-769 878-737 1297-693l-470-83c75-815 895-686 560-1342 103 670-555 450-655 1335-204-4-430 33-578 161 173-304 463-580 743-851 373-119 661-595 250-795 206 256 45 520-275 555-181 20-172 220-217 350-20-92-20-211 27-310-182 114-56 398-240 490 100-115 33-292 145-435-155 94-127 299-220 397-92 97-217 68-285 158 40-145 174-64 263-227 43-80 23-195 185-343l-283 185c290-232 110-320-312 3-103-35-125-95-20-208 14-96 58-174 162-205 265-160 308-407 510-560l83 120c30-75 29-175 160-175 19 105 77 172 177 198-82-140-18-193 58-240l-55 122c323-58 102-373 463-450-199 172-247 354-363 538 114-3 344-258 577 97 717 943-810 1512 225 3670-344-53-429 149-460 325 196-219 443-351 715 0 198 256 274 675 565 675 186 0 360-126 360-390 0-370-640-605-690-1290-383-561 51-938-45-1200 170 185-187 678 25 1070-53-248 25-457 113-690 66-178-101-444 87-527-107 190 54 390-50 642-73 179-143 349-100 528 459-882-24-921 260-1143-184 281 270 293-200 1130 152-189 370-317 335-680 163 431-348 605-350 870zm-280-1182c287 23-172 616 58 1062-365-501 168-862-58-1062zm-262 5205l-233 350c190-46 452-81 535-338-97 29-206 11-302-12zm-50-10l-220 252-88-2 258-270zM7520 6578a382 382 0 0 0-7 357c199-114 217-265 227-417-73-52-147 16-220 60z"/>
		<path d="M9298 2278c-179-45-330 4-388 252-51 44-86 134-86 134s109 12 154-24c143 19 248-44 318-191 53-28 67-103 67-103s-79-7-120 29c-70-16-135-3-198 35 38-91 147-113 253-132zm-72 161c-10 47-44 84-87 115-1-44-14-77-63-103 46-21 101-31 150-12zm-733 594l25-95-115 50c82-368 440-95 90 45zm2397 5512c28-692-499-573-440-900 85-475 5-801-220-1180 257 43 330 404 330 610 0 469-206 715 302 908 117 43 118 205 28 562z"/>
	</g>
	<g id="unicorns_crown_and_chain">
		<path d="M10153 5063l187 215c119 6 253 174 198 397l40 223c87 145 37 427-103 477l-87 218c35 224-53 368-211 446 19 52-28 206-65 229 40 181-78 335-212 402l-47 163c68 239-61 481-193 510l-55 110c175 260-60 640-400 465-343-178-125-663 210-578l35-90c-42-177 26-398 183-487l37-153c-43-165 59-421 228-470l47-200c-19-208 56-362 233-462l57-135c-31-141-27-331 63-458l-23-152c-92-78-157-280-65-390z"/>
		<path fill="#fff" d="M10290 5438l-48-21c-48 52 6 198 87 264l17-53c-48-51-74-122-56-190zm148 163l38 22c45-51 10-203-78-259l-26 45c54 45 76 122 66 192zm-46 369l-29-44c-68 19-103 249-70 348l43-35c-14-69 4-221 56-269zm53 296l20 39c66-19 119-244 75-339l-46 25c21 66-3 222-49 275zm-262 342l-20-49c-71 5-172 250-159 354l49-27c0-70 70-242 130-278zm-47 324l25 32c68-6 192-225 167-326l-50 15c8 69-87 236-142 279zm-235 333l-20-49c-71 6-160 220-147 324l49-26c0-70 58-212 118-249zm-26 290l12 42c69-5 183-200 158-302l-50 15c8 70-65 201-120 245zm-232 355l-20-49c-71 6-140 218-127 322l52-9c0-70 35-227 95-264zm19 302l13 43c68-6 153-238 127-340l-50 15c9 70-34 239-90 282zm513-3055l133 182c18 26-16 59-38 29l-76-103zm200 497c-6-34 41-37 47-10l56 276c6 31-39 47-47 10zm25 650c6-35-39-44-44-17-16 88-66 181-104 260-14 28 28 50 45 16 38-77 88-169 103-259zm-362 665c17-30 59-10 46 15-42 79-61 164-80 249-7 31-53 23-45-14 17-85 36-169 79-250zm-255 610c10-34 53-13 45 13l-86 279c-9 30-56 23-45-13zm-220 644c15-31 55-6 43 20l-124 264c-13 29-59 15-43-20zm-346 601c217 140 425-88 349-279l-74 31c48 163-124 268-229 183-131-106-32-282 102-274l7-80c-256 12-330 307-155 419z"/>
		<path d="M10060 4488l132-212 69-37 5-80 154-246-222-223-67 88-68-32c-8-66 5-147-53-213-78 10-125 65-170 122l-120-57 70-103-465-112-40 140-105-18c-4-73-21-153-90-200-68 20-113 67-145 140l-400 95 95 460c632 6 1159 85 1420 488z"/>
		<path fill="#fff" d="M9869 4067c-23 52-125 4-106-36 24-52 125-4 106 36zm-800-223c-13 56-122 27-111-16 14-55 122-27 111 16zm1147-20c53 140-23 248-47 86l-90 82c45 12 124 35 94 72-47 57-114 71-172 39-59-33-145-101-110-176 30-62 102-75 165 12 49-105-28-117-106-128 34-43 41-99 14-169-50 37-83 83-87 146-30-48-109-98-169 37 15-46 161-14 126 82-22 60-109 76-194 51-176-60-193-340-13-134l43-166c-145 45-186-43-28-112l-239-49c104 137 26 194-78 84l-44 166c257-93 105 144-77 110-86-20-154-76-144-139 15-101 159-58 150-9 12-148-80-143-130-116 27-56 21-113-5-170-58 48-79 100-70 155-74-28-147-55-155 60 97-46 154 1 150 70-6 82-114 100-182 100-67 0-118-45-131-118-9-47 72-29 118-17l-40-115c-8 38-59 67-80 69-26 3-15-39-20-60l-43 18 43 169 50 49-23 55 7 29c485-4 952 142 1409 364l16-25-6-79 72-27 128-189zm-768 3l40 80-78 40-35-82z"/>
		<path d="M8163 4705l230-77-25-90c82-114 138-235 95-395l42-98c195 12 311-203 133-362-180-162-377 65-325 222l-85 178c-164 120-240 392-113 492z"/>
		<path fill="#fff" d="M8389 3871l51-8c-4-74 55-118 110-79 71 50 31 129-32 129l8 48c113 0 158-141 49-226-77-60-199 10-186 136zm-99 274c-30 52 33 78 58 33l107-203c17-31-17-90-52-27zm-13 285l40 48c43-35 111-183 94-271l-55 34c-9 62-41 141-79 189zm-109 7l-45 58c-44-89 25-259 90-310l30 43c-50 65-79 124-75 210zm72 241l60-20-32-138c-12-48-83-45-65 20z"/>
	</g>
	<g id="lions_crown">
		<path d="M1115 1971l210 278-25 70 73 15 50 94 1293-503-8-54 51-45-56-53 10-338-265-90c-96-24-161-8-190 55-65-53-115-33-180 5l-258-381-271 93 89 458c-106 14-197 29-190 103-74-7-141 2-188 75z"/>
		<path fill="#fff" stroke="#000" stroke-width="40" d="M1605 1308l-110-345c53 57 129 102 194 80 66-23 114-113 116-193l110 345c-53-58-129-102-194-80-66 23-114 112-116 193z"/>
		<g id="half_lions_crown">
			<path stroke-width="140" d="M1177 1986l116-183c-140-220 194-239 363-228l-27-138c-369-58-698 96-452 489z"/>
			<g fill="#fff" stroke="#000" stroke-width="60">
				<circle cx="1079" cy="1563" r="68"/>
				<circle cx="1170" cy="1480" r="68"/>
				<circle cx="1280" cy="1420" r="68"/>
				<circle cx="1405" cy="1400" r="68"/>
				<circle cx="1524" cy="1410" r="68"/>
				<circle cx="1635" cy="1408" r="68"/>
				<circle cx="1046" cy="1684" r="68"/>
				<circle cx="1076" cy="1799" r="68"/>
				<circle cx="1156" cy="1891" r="68"/>
			</g>
			<path fill="#fff" stroke-linecap="round" stroke-width="50" d="M1203 1807c-162-292 188-322 410-328 29 0 36 34-6 40-138 18-523 4-372 267 10 18-23 37-32 21zm498-340l35 90c12 31 44 16 34-10l-34-94c-7-21-46-14-35 14z"/>
		</g>
		<path fill="#fff" stroke="#000" stroke-width="40" d="M1476 959l345-110c-58 53-108 131-83 193l-72 32c-15-67-110-113-190-115z"/>
		<circle cx="1706" cy="1066" r="52" fill="#fff" stroke="#000" stroke-width="40"/>
		<use transform="matrix(-0.769,0.639,0.639,0.769,2342,-848)" xlink:href="#half_lions_crown"/>
		<g fill="#fff" stroke="#000" stroke-width="30">
			<circle cx="1818" cy="1404" r="50"/>
			<circle cx="1843" cy="1466" r="50"/>
			<circle cx="1865" cy="1526" r="50"/>
		</g>
		<path fill="none" stroke="#fff" stroke-width="40" d="M1693 1320c47-75 112-78 180-67m-105 1l-36-105m-39 12l80-23"/>
		<path fill="#fff" d="M2329 1828c-39 5-67 32-63 60 3 29 37 49 75 44 39-5 67-32 63-60-3-29-37-49-75-44zm-677 250c-35 17-53 51-40 78 13 26 51 33 86 16s53-51 40-78c-13-26-51-33-86-16zm-356-217c-35 137 36 173 60 69l75 124c-89-39-95 35-51 61 105 61 235 17 215-115-12-77-91-71-97 11-59-13-72-130 27-126-21-38-34-94-14-144 50 24 84 66 97 106 51-62 120-32 112 53-79-36-120 10-69 76 86 111 264 77 285-101 20-172-112-57-112 30l-79-194c145 100 247-36 28-86l230-90c-129 157 12 246 60 59l68 180c-88-65-210-16-105 60 100 72 274 31 262-103-9-88-104-71-109-1-29-29-58-147 62-110-12-48-8-97 23-141 49 16 63 82 64 122 82-56 147 7 106 85-45-77-119-35-100 30 42 146 197 95 252-30 48-108-67-66-92-17l-3-169c60 82 179 115 54-72l109 50-25 290-56 48 41 50v39l-1124 426-26-35 20-77-85-11-190-254zm655 122l103 38 44-93-100-38z"/>
	</g>
	<g id="lion">
		<path d="M2590 6385c768 560 726 1135 430 1790-174 385 300 586 570 495 228-77 388 67 340 280 53 156-27 254-145 305-16 114-125 184-220 205l-40-145c-338 24-686-222-980-430-507-359 318-630-435-1260z"/>
		<path fill="#fff" d="M2570 6530c629 468 551 1019 340 1575-166 437 338 850 635 645 113-1 127 54 125 130-67-142-92 13-352 0 121 78 435-109 365 203-137-237-191-68-440-138 101 146 309-42 375 148l-170-33c49 55 79 113 75 175-174 10-189-165-318-200 4 61 26 111 60 155-222-86-226-206-305-282l48 160c-147-28-134-218-208-290l28 155c-135-7-129-245-202-309l44 201c-489-345 383-425-480-1395 37-87 125 2 170 50 344 361 336 699 222 1037 147 170 311 315 512 399-285-204-373-412-374-623 0-320-82-610-282-886-143-198-43-431 30-635 389 272 439 681 474 1088 51-380-35-834-437-1175zm1283 2300c-15-112-86-132-177-117 11 28 16 60 53 76 48-24 84 18 124 41zm-179 38c172-69 242 231 133 271 0-64-6-120-71-128 22-44 3-116-62-143zm-66 269c101-32 80 128 33 194-16-88-111-169-33-194z"/>
		<path d="M3330 5825c-25 78-8 144-35 205l-55-100-30 255-70-190-5 345a436 436 0 0 1-130-210c-42 127 11 253 45 380-65-54-134-97-180-195-27 88-8 177 25 265-101-33-142-120-185-205 43 132 28 264-11 396l-79-131-15 275-110-100c2 50 40 109 5 150-72-9-42 50-40 90-134 289-181 637-460 830-135 506-1086 745-540 1460 182-111 486 18 460 215 113 140 80 292 50 445l-310-60c-76 120-171 175-270 135-516-208-666-845-745-1245 300-418 501-868 430-1405-470 248-970 31-970-605 0-208-34-281-100-402l170 132c13-172-8-335-95-480 107 32 208 75 230 245 98-206 12-329-155-415 134-44 261-54 355 100 48-175-25-300-170-395 170-42 301 55 345 280 95-265-37-433-245-500 164-53 374-53 450 220 29-207-110-332-285-440 125-1 235 54 340 133-45-170-495-247-495-633 0-268 333-640-137-617 97-140 225-122 342-3-22-159 49-257 195-337-39 94-60 199 0 287-8-118 38-197 110-255-12 88-1 170 40 245 19-75 53-141 145-170-132 370 315 542 315 915 0 351-228 299-228 560v225c0 545-749 924-749 1325 0 266 212 373 447 155 159-148 128-303 445-615 267-591 355-1208 200-1850-253-1046 2715-1746 1755 1290z"/>
		<path fill="#fff" d="M1660 9388l65 87c44-1 70 37 98 71 10-152-66-171-163-158zm178 455c41-119 9-226-113-263-32 44-30 88-15 133 76-3 101 70 128 130zm-398 118c117 5 157-175 36-208l-12 99c39 59 16 84-24 109zm-7-106c-53-60-9-134-65-212 76 91 107-2 187 105-2-112-157-153-247-223 470 100 210 245 390 310-10-99-6-202-138-262 48-11 97-22 145-3-37-104-227 13-291-60 102 0 205-64 259-45-115-165-221 104-318-40-572-846 450-1121 535-1575 558-575 301-1436 60-1362 208-79 296 108 390 227 218-423 492-851 910-1170 580-2415-1610-1854-1520-1060 161 1049 33 1143-170 1925-539 500-255 497-667 788-269 188-518-55-518-325 0-597 770-785 770-1388 0-153-94-260 30-462 296-483-135-775-150-913-27 153 320 413 65 998-50-322 209-585-312-1068 412 557 192 678 267 1075-209-252-32-614-190-880 38 283-78 553 120 885-325-312-117-750-255-975 32 352-133 617 215 1000 113 125 142 125 142 340 0 491-809 798-809 1380 0 246 149 500 422 500 418 0 565-527 690-475-339 527 131 1187-590 1918 0 96-8 256 40 347l80-145a882 882 0 0 0 13 438l72-223c-3 127-52 253 30 380l60-230c39 158-57 327 120 460 6-122 3-243-30-365 97 62 52 425 258 385zM793 5040c-359-313-147-669-143-850 80 228-112 480 143 850z"/>
		<path d="M2082 6315c530-327 823-899 1046-1460-321 510-621 1039-1046 1460zm-482 195c396-481 490-1117 520-1720-140 587-253 1184-520 1720zm180 1420c151-229 341-1380-45-1205 294 120 86 885 45 1205zm-725 1300c-94-125-127-286-155-450 795-930 30-575 590-1800-203 649-196 1485 165 1045-15 92-132 204-320 270-150 274-415 416-280 935z"/>
		<path d="M3083 5018c308 253 890 514 1192 420 11-81 62-155 120-190l75 212c203-49 402 65 345 345 66 134 41 263-25 390a362 362 0 0 0-275-175c69 124 110 252 80 390-52-55-92-128-175-140-234 80-323-110-400-230-397-125-793-266-1190-315-36 137-190 155-405 113-64 42-142 17-207 2 40-12 74-37 77-70-83 6-154 49-255-5 26-13 53-26 60-65-46 24-90 48-155 65-12-47 24-95 50-142l-92 70c-34-68-15-135-3-203l-42 88c-52-59 14-161 27-243l-40 45c-11-84 8-160 50-230l-55 30c1-52 14-103 35-155l-55 30 35-170-55 15c20-49 25-68 25-130-132-187-150-785-150-785h1405c93 362 299 746 3 1033z"/>
		<path fill="#fff" d="M1850 4664c50-56 100-139 120-200-78 30-142 51-120 200zm26 109c80-43 103-129 99-200-58 39-89 64-99 200zm20 225c66-47 86-138 110-200-44-76-101 56-110 200zm43 76c51-21 75-49 119-84-32-103-99-43-119 84zm-19 174c79-30 99-81 171-124-44-76-151-3-171 124zm29 147c78-29 84-91 156-134-20-57-151-16-156 134zm4 163c78-30 91-116 202-173-30-19-216 6-202 173zm77 110c119-7 246-173 186-210-30-20-133 93-186 210zm610 135c118-2 142-93 85-110-57-16-6 39-85 110zm-140-6c118-3 177-107 95-137-75-27-16 66-95 137zm-111-1c104-28 144-173 72-182-78-9 19 82-72 182zm-191-73c107-9 239-112 140-180-87-60-27 99-140 180zm1986-129l-13-45c101-11 164-34 187-113v108c-51 36-116 54-174 50zm207 132l-213-13 10-58c83 2 148-26 216-50-6 40 7 69 22 91zm-26 177c-21-38-20-78-5-115l-216-22-56 54zm130-374c38-11 61 20 34 42-29 24-1 66 21 77 25 11 21 46-14 45-107-6-114-143-41-164zm29 211c38 12 34 36 0 38-33 1-66 78-24 115 34 30-16 57-46 40-114-68-35-227 70-193zm-174 250c34 22 32 52-2 53-85 0-45 76-2 116 21 19 3 59-26 40-164-109-93-288 30-209zm241-423c15-77 161 1 150 126-56-98-165-47-150-126zm-33 256c89-91 205 152 200 213-75-115-266-146-200-213zm-163 252c76-73 146 131 148 198-60-115-212-137-148-198zm-222-35c-2-38 18-63 40-87-138-113-365-107-508-198 363 115 532-111 253-195-1273-381-784-674-1438-477 149-189 320-192 503-108 111-18 236-406-45-990h-960c-104 607 99 893 237 1350 599 343 1328 338 1918 705zm-235-365c-759 61-1354-240-1580-570 430 383 991 504 1580 570z"/>
		<path d="M1645 4553c-133-12-151-145-140-223l-110 98c79-183-37-325 15-493-52 38-53 98-60 155-166-204 28-363 50-545-75 68-66 176-145 245-102-162-50-323 40-485l-130 180c-36-143 3-287 80-430-55 67-110 136-185 145 122-126 31-378 190-510-167-172-88-345 220-342 26-74 119-95 195-93 55-67 123-103 205-110 15-107 133-47 215-45 26-97 87-151 220-115 53-36 107-44 160-40 41-36 87-44 135-40 50-36 96-26 140 5 124-92 328-149 300 155 144 51 198 277 445 255-43 96-125 116-215 120 113 137 209 307 405 285-61 84-156 103-270 88 132 127 340 230 395 387l-150-60c88 117 172 235 175 365-56-56-113-102-175-105 88 94 204 165 250 295-69-34-137-71-212-60 224 69 287 208 247 410 52 103 31 186-30 240-10 139-14 280-140 360 57 214-163 279-167 468l-70-38c-28 106-113 184-258 203l25-200-177 32c127-197 59-207 25-332-57 67-117 128-213 117 105-146-26-280 33-420-75 98 17 310-208 313 127-139-36-275 5-415-52 110-80 208-42 325-153-47-164-202-145-380-47 87-36 180-15 275-113-87-210-183-223-335-21 107 1 212 73 320-110-11-189-120-265-235 49 161-11 244-108 300 9-84 6-159-70-183-75 41-147 189-165 305a459 459 0 0 1-155-212z"/>
		<path fill="#fff" d="M2569 3531c79 73 172 13 162-76-47 41-102 65-162 76zm54-118s-52-129-71-198c-21-80 85-89 93-58 54 222 91 248-9 299-111 57-77 23-238-142-63-64 76-131 98-70 27 70 127 169 127 169zm76-284c-135-152 63-198 0 0zm-371 137c-183-91-16-206 0 0zm-763-626c77 313 366 342 530 535-5-52-144-134-104-185 67-83 209 170 414 83-41-135-209-11-302-208 200 13 363-49 497-182 67 152-161 264-85 347 119-56 172-99 195-250 4-29 62-42 65 0 4-212 146-496-120-627 221-387 375-130 161-71 27 0 104-30 130-27 66-270-228-128-353 95l55-170-145 200c-21-56 22-112 33-167-60 55-73 156-151 202-14-72 51-122 58-185-79 57-79 170-165 223-33-88 23-144 35-215-55 88-91 73-95 275-34-84-48-112-43-195-24 64-52 95-5 220-34-39-52-138-147-152 40 63 82 106 97 179-43-54-75-133-201-139 81 49 129 89 146 133-65 15-159-115-234-85 49 31 122 49 144 91-71 21-130-56-190-62 26 34 67 52 78 102-103 21-203-58-308-57 79 42 308 91 185 143-312-167-619-52-447 134l55-57c-74-54 7-215 330-45-301 54-430 221-475 435 80-78 136-264 297-318-6 73-150 140-185 263-35 119-15 196-87 362 75-75 109-202 126-324 16-120 204-208 211-301zm1264 684c112 245 360 332 444 649 1-308-323-416-454-812l-4-118c141 507 654 582 455 1077-51-322-302-377-426-624 11-57-5-115-15-172zm5-480c162 488 528 527 561 901-117-353-318-205-568-748zm454 539a461 461 0 0 1 308 244c74 130 207 110 192 206-401-189-61-119-500-450zm87-268c79 13 233 97 274 183-120-11-240-79-274-183zm188 310c31 13 152 101 176 145-42 0-159-46-176-145zm162 448c53-38 162 27 162 127-29-39-126-88-162-127zm-282-265c174 411 397 346 430 565-174-255-278 13-430-565zm-5 320c129 206 484 116 345 587 18-366-284-324-345-587zm-43 167c53 98 278 128 285 290 4 86-87 104-27 249 70 168-114 193-90 341-63-127 86-190 15-317-64-113 35-140 9-269-35-174-214-165-192-294zm-25 1053c111-165 107-317 80-398-72-220 178-212-140-602-10 113 174 169 73 547-39 146 75 175-13 453zm-150-130c104-111-71-229 28-458 101-236-194-306-133-580 7 225 210 258 218 445 6 170-112 213-48 355 49 110 34 193-65 238zm-182-813l-28 78c80 75 89 169 63 272-21 80-40 75-10 200 5-205 215-300-25-550zm-235-597l28-50c76 158 213 332 167 522-31-172-121-319-195-472zm-114 61l81-44c75 201 237 403 164 600-24-228-178-406-245-556zm-93 16l49-6c22 137 232 293 268 601 14 130-58 78-50 313-72-152 44-243-33-425-67-158-215-212-234-483zm294-1105c159 77 234 245 292 411 75 213 212 269 260 384-122-134-233-53-357-200-71-84-127-280-235-380l15-85c197 127 211 436 358 485-152-181-75-378-345-547zm-5-130v76c312 73 310 491 610 517-239-167-341-553-610-593zm-19-142l14 76c250-12 375 296 563 359-193-138-311-420-577-435zm-78-120l50 67c233-12 380 166 500 110-200-35-345-237-550-177zm-138 1825c216 220-9 342 3 497-85-115 93-215-23-405zm-405 342c-85-149 6-265 80-427 68-149 9-297-5-443 65 74 119 159 215 195 20 153 66 214 50 343-20 153-141 231-105 350-120-115 74-248 38-410-57-250-20-309-123-345 7 2 45 241-42 390-72 121-112 178-108 347zm-182-478c161-250-83-477 16-643l60 49c-79 107 145 290-6 564-43 79-83 170-90 243 382-499 82-655 132-782l86 104c140 565-342 570-157 1043a534 534 0 0 1-41-578zm-293 693c-47-191 98-244 65-363-44-162 33-298 106-397 173-235-75-481 24-647l70 47c-113 105 104 399-22 577-55 78-155 253-122 425 32 169-99 142-121 358zm-132-110c-35-129 73-212 25-326-65-156 123-334 158-454 54-189-86-421 26-593l71 48c-119 105 20 369-22 547-22 93-201 278-168 450 32 169-71 162-91 328zm-94-1674l32 57c-245 113-26 397-301 700 154-219 41-603 269-757zm-29 1399c-25-397 125-412 161-593 37-189-102-420 27-592l70 48c-119 104 20 368-22 547-44 187-197 261-236 590zm-150-332c9-131 157-189 153-393-3-191-66-392 86-564l40 50c-118 105-59 311-68 494-12 231-156 302-211 413z"/>
		<path d="M2190 2785c-86 42-39-40-228 5-113 27-211-183-302-235 149-11 307-32 450-91 31 78-114 75 80 321zm-139-264c-43 44-217 71-284 66 84 48 277 24 284-66zm-92 220c-27-22-43-54-34-88-20 8-66 8-96 0 37 44 85 92 130 88zm535-43c91-29 39-96 124-158 78-57 50-249 77-345-131 81-278 155-423 210 32 78 194-20 222 293zm-124-290c83-27 212-87 268-125-35 73-183 162-268 125zm259-64c3 57-2 140-38 167-5-31-12-78-42-96 19-7 64-44 80-71z"/>
	</g>
</svg>
